<?xml version="1.0" encoding="UTF-8"?>
<!DOCTYPE svg PUBLIC "-//W3C//DTD SVG 1.1//EN" "http://www.w3.org/Graphics/SVG/1.1/DTD/svg11.dtd">
<!-- Creator: CorelDRAW 2020 (64 Bit) -->
<svg xmlns="http://www.w3.org/2000/svg" xml:space="preserve" width="1748px" height="1240px" version="1.1" style="shape-rendering:geometricPrecision; text-rendering:geometricPrecision; image-rendering:optimizeQuality; fill-rule:evenodd; clip-rule:evenodd"
viewBox="0 0 174800 124014"
 xmlns:xlink="http://www.w3.org/1999/xlink"
 xmlns:xodm="http://www.corel.com/coreldraw/odm/2003">
 <defs>
  <style type="text/css">
   <![CDATA[
    .fil3 {fill:none}
    .fil1 {fill:#006A8D;fill-rule:nonzero}
    .fil2 {fill:#40AAD7;fill-rule:nonzero}
    .fil0 {fill:#464646;fill-rule:nonzero}
   ]]>
  </style>
 </defs>
 <g id="Camada_x0020_1">
  <metadata id="CorelCorpID_0Corel-Layer"/>
  <g id="_936863115616">
   <g>
    <path class="fil0" d="M15311 83651l-91 633c-190,-98 -385,-172 -586,-221 -199,-50 -407,-74 -623,-74 -464,0 -827,93 -1089,281 -261,187 -392,444 -392,771 0,412 442,871 1325,1376 120,67 212,120 276,158 612,356 1011,658 1195,909 184,251 277,555 277,915 0,562 -201,1017 -598,1367 -399,349 -922,524 -1566,524 -264,0 -525,-26 -786,-79 -260,-52 -513,-129 -758,-231l77 -705c276,150 535,261 779,331 243,72 475,107 697,107 448,0 807,-114 1078,-343 269,-229 404,-533 404,-914 0,-458 -429,-932 -1286,-1424 -133,-77 -234,-136 -304,-176 -591,-347 -981,-646 -1170,-896 -188,-250 -283,-546 -283,-885 0,-522 187,-927 559,-1217 374,-292 899,-436 1579,-436 206,0 416,18 627,57 210,39 430,95 659,172l0 0z"/>
    <path class="fil0" d="M20627 87571l0 352 -3435 0c19,616 178,1089 481,1418 301,328 727,492 1276,492 217,0 432,-29 650,-88 218,-59 436,-147 655,-264l0 605c-213,92 -431,161 -657,208 -225,45 -461,69 -705,69 -718,0 -1279,-227 -1686,-682 -406,-454 -610,-1085 -610,-1896 0,-754 197,-1363 590,-1823 394,-461 909,-691 1548,-691 577,0 1037,207 1378,618 343,413 515,974 515,1682l0 0zm-596 -100c-35,-543 -170,-961 -405,-1251 -235,-291 -556,-436 -962,-436 -394,0 -723,151 -987,455 -263,303 -418,714 -466,1231l2820 0 0 1 0 0z"/>
    <path class="fil0" d="M24965 86295l0 -909 558 0 0 4338c0,892 -183,1560 -548,2002 -365,444 -915,665 -1648,665 -280,0 -551,-24 -813,-72 -262,-47 -506,-120 -735,-214l47 -653c239,131 482,228 729,294 248,65 496,97 743,97 524,0 931,-175 1221,-524 291,-350 436,-843 436,-1477l0 -633c-182,343 -409,605 -685,783 -276,181 -587,271 -935,271 -593,0 -1072,-229 -1436,-685 -363,-455 -545,-1059 -545,-1812 0,-762 181,-1367 543,-1815 363,-447 848,-672 1458,-672 365,0 685,87 960,258 276,172 491,425 650,758l0 0zm-1557 -519c-425,0 -765,175 -1017,527 -253,352 -379,834 -379,1443 0,613 126,1098 381,1456 254,357 598,535 1033,535 442,0 800,-180 1072,-539 273,-358 409,-832 409,-1424 0,-625 -133,-1115 -400,-1468 -266,-354 -633,-530 -1099,-530l0 0z"/>
    <path class="fil0" d="M27084 85384l606 0 0 2783c0,545 94,947 284,1204 188,257 483,386 883,386 464,0 818,-176 1064,-531 247,-354 369,-864 369,-1532l0 -2310 619 0 0 4859 -566 0 0 -958c-177,343 -404,600 -679,770 -274,170 -601,255 -978,255 -525,0 -922,-170 -1193,-507 -272,-339 -407,-837 -407,-1494l0 -2925 -1 0 -1 0z"/>
    <path class="fil0" d="M34896 85347l0 623c-70,-15 -133,-27 -188,-35 -56,-7 -107,-12 -151,-12 -409,0 -730,155 -962,463 -232,308 -347,736 -347,1281l0 2576 -615 0 0 -4857 566 0 0 1024c121,-346 303,-615 544,-805 241,-191 522,-286 843,-286 44,0 91,2 141,6 50,5 106,12 169,22l0 0z"/>
    <path class="fil0" d="M39130 87142l0 3100 -543 1 0 -838c-181,298 -410,524 -685,676 -274,153 -587,229 -935,229 -468,0 -840,-126 -1121,-381 -282,-254 -422,-593 -422,-1014 0,-517 216,-920 647,-1207 433,-289 1042,-432 1829,-432l625 0c0,-19 1,-45 4,-81 3,-34 5,-61 5,-81 0,-403 -100,-719 -303,-948 -201,-228 -480,-342 -836,-342 -247,0 -486,33 -715,99 -228,67 -455,170 -680,310l0 -594c241,-118 485,-208 731,-268 246,-60 489,-90 731,-90 556,0 973,156 1251,467 278,310 417,774 417,1394zm-1287 633c-571,0 -1011,96 -1316,286 -307,191 -460,463 -460,815 0,280 90,506 269,678 179,173 414,260 707,260 451,0 810,-144 1079,-428 268,-287 402,-674 402,-1164l0 -447 -681 0 0 0z"/>
    <path class="fil0" d="M43911 82975l615 0 0 7268 -567 0 0 -996c-182,350 -413,614 -695,792 -283,180 -610,270 -980,270 -566,0 -1030,-238 -1391,-712 -363,-475 -544,-1092 -544,-1851 0,-746 183,-1344 548,-1792 366,-450 850,-675 1453,-675 340,0 643,79 912,236 268,158 485,383 650,678l0 -3218 -1 0 0 0zm-1505 2809c-425,0 -763,179 -1014,537 -251,356 -377,841 -377,1454 0,626 126,1118 377,1475 251,357 593,535 1024,535 445,0 805,-180 1081,-543 276,-361 415,-841 415,-1438 0,-632 -134,-1127 -401,-1484 -267,-357 -635,-536 -1105,-536z"/>
    <path class="fil0" d="M48112 85279c688,0 1236,229 1642,685 407,456 611,1072 611,1850 0,779 -205,1397 -613,1857 -407,460 -955,692 -1640,692 -683,0 -1228,-232 -1639,-692 -410,-461 -614,-1080 -614,-1857 0,-775 204,-1390 612,-1848 408,-458 956,-687 1641,-687l0 0zm0 515c-477,0 -861,184 -1155,552 -294,369 -441,854 -441,1458 0,599 148,1085 443,1454 296,371 679,556 1153,556 489,0 879,-183 1171,-548 293,-365 440,-853 440,-1462 0,-612 -147,-1102 -440,-1464 -292,-364 -682,-546 -1171,-546l0 0z"/>
    <path class="fil0" d="M53956 85347l0 623c-69,-15 -133,-27 -187,-35 -56,-7 -106,-12 -150,-12 -410,0 -731,155 -962,463 -232,308 -348,736 -348,1281l0 2576 -615 0 0 -4857 566 0 0 1024c121,-346 303,-615 544,-805 241,-191 522,-286 843,-286 44,0 91,2 140,6 50,5 105,12 169,22z"/>
    <path class="fil0" d="M58190 87142l0 3100 -543 1 0 -838c-181,298 -409,524 -682,676 -275,153 -587,229 -937,229 -466,0 -841,-126 -1121,-381 -281,-254 -422,-593 -422,-1014 0,-517 216,-920 647,-1207 432,-287 1042,-432 1829,-432l625 0c0,-19 1,-45 4,-81 3,-34 4,-61 4,-81 0,-403 -99,-719 -302,-948 -201,-228 -480,-342 -837,-342 -246,0 -485,33 -714,99 -229,67 -455,170 -681,310l0 -594c241,-118 485,-208 731,-268 246,-60 489,-90 731,-90 556,0 973,156 1251,467 278,310 417,774 417,1394zm-1286 633c-571,0 -1011,96 -1316,286 -307,191 -460,463 -460,815 0,280 90,506 269,678 180,173 415,260 708,260 451,0 810,-144 1079,-428 268,-287 402,-674 402,-1164l0 -447 -682 0 0 0z"/>
    <path class="fil0" d="M65702 82975l614 0 0 7268 -567 0 0 -996c-181,350 -412,614 -696,792 -281,180 -609,270 -980,270 -565,0 -1030,-238 -1391,-712 -361,-475 -543,-1092 -543,-1851 0,-746 182,-1344 547,-1792 365,-450 849,-675 1453,-675 339,0 644,79 912,236 267,158 484,383 650,678l0 -3218 1 0 0 0zm-1506 2809c-425,0 -764,179 -1013,537 -252,356 -377,841 -377,1454 0,626 125,1118 377,1475 250,357 591,535 1024,535 443,0 805,-180 1081,-543 276,-361 414,-841 414,-1438 0,-632 -134,-1127 -401,-1484 -267,-357 -634,-536 -1105,-536z"/>
    <path class="fil0" d="M69902 85279c690,0 1237,229 1643,685 406,456 610,1072 610,1850 0,779 -204,1397 -612,1857 -408,460 -955,692 -1641,692 -683,0 -1229,-232 -1640,-692 -409,-461 -614,-1080 -614,-1857 0,-775 204,-1390 612,-1848 409,-458 956,-687 1642,-687l0 0zm0 515c-476,0 -861,184 -1155,552 -293,369 -440,854 -440,1458 0,599 147,1085 443,1454 296,371 679,556 1152,556 490,0 880,-183 1172,-548 292,-365 439,-853 439,-1462 0,-612 -147,-1102 -439,-1464 -292,-364 -682,-546 -1172,-546l0 0z"/>
    <path class="fil0" d="M81137 83774l-123 586c-254,-123 -519,-216 -798,-279 -278,-61 -570,-93 -879,-93 -845,0 -1517,257 -2019,772 -501,515 -752,1204 -752,2068 0,888 260,1596 784,2121 522,525 1226,788 2113,788 237,0 460,-21 666,-62 207,-42 399,-103 580,-185l0 -2339 -1547 0 0 -547 2182 0 0 3305c-299,122 -610,212 -932,272 -322,60 -658,89 -1007,89 -455,0 -861,-52 -1221,-156 -361,-105 -688,-266 -984,-486 -425,-315 -750,-710 -976,-1187 -226,-475 -338,-1007 -338,-1594 0,-391 53,-760 159,-1108 107,-348 272,-681 494,-997 277,-403 662,-720 1157,-951 495,-230 1039,-345 1634,-345 327,0 641,27 941,81 297,54 587,137 866,248l0 -1z"/>
    <path class="fil0" d="M85177 85347l0 623c-70,-15 -134,-27 -190,-35 -56,-7 -105,-12 -150,-12 -409,0 -729,155 -961,463 -233,308 -349,736 -349,1281l0 2576 -614 0 0 -4857 566 0 0 1024c122,-346 302,-615 543,-805 241,-191 523,-286 844,-286 44,0 91,2 141,6 49,5 105,12 170,22l0 0z"/>
    <path class="fil0" d="M86057 85384l606 0 0 2783c0,545 94,947 284,1204 188,257 483,386 883,386 464,0 818,-176 1064,-531 245,-355 369,-864 369,-1532l0 -2310 620 0 0 4859 -567 0 0 -958c-178,343 -404,600 -679,770 -274,170 -600,255 -978,255 -525,0 -923,-170 -1194,-507 -271,-339 -406,-837 -406,-1494l0 -2925 -2 0 0 0z"/>
    <path class="fil0" d="M92220 89414l0 2867 -614 0 0 -6897 566 0 0 958c184,-343 421,-605 710,-789 289,-182 611,-273 967,-273 593,0 1067,223 1422,666 354,445 531,1045 531,1801 0,782 -183,1402 -548,1863 -364,460 -856,691 -1472,691 -334,0 -634,-76 -901,-229 -268,-153 -489,-372 -661,-658l0 0zm2920 -1629c0,-623 -124,-1108 -374,-1457 -249,-349 -594,-525 -1031,-525 -454,0 -820,180 -1098,539 -277,359 -417,837 -417,1433 0,639 133,1136 398,1493 265,357 634,536 1107,536 425,0 768,-182 1027,-548 259,-364 388,-855 388,-1471z"/>
    <path class="fil0" d="M98970 85279c689,0 1236,229 1643,685 406,456 608,1072 608,1850 0,779 -202,1397 -612,1857 -407,460 -954,692 -1641,692 -682,0 -1228,-232 -1637,-692 -410,-461 -615,-1080 -615,-1857 0,-775 204,-1390 612,-1848 409,-458 956,-687 1642,-687zm0 515c-477,0 -862,184 -1156,552 -293,369 -440,854 -440,1458 0,599 148,1085 443,1454 296,371 679,556 1153,556 488,0 879,-183 1172,-548 291,-365 438,-853 438,-1462 0,-612 -146,-1102 -438,-1464 -293,-364 -684,-546 -1172,-546l0 0z"/>
    <path class="fil0" d="M108461 83651l-89 633c-191,-98 -386,-172 -587,-221 -199,-50 -407,-74 -624,-74 -463,0 -826,93 -1087,281 -262,187 -394,444 -394,771 0,412 442,871 1325,1376 120,67 212,120 276,158 612,356 1011,658 1195,909 184,251 277,555 277,915 0,562 -200,1017 -598,1367 -399,349 -920,524 -1566,524 -262,0 -525,-26 -786,-79 -260,-52 -513,-129 -757,-231l76 -705c277,150 536,261 778,331 244,72 476,107 699,107 447,0 806,-114 1076,-343 269,-229 405,-533 405,-914 0,-458 -428,-932 -1286,-1424 -133,-77 -235,-136 -305,-176 -591,-347 -981,-646 -1170,-896 -188,-250 -284,-546 -284,-885 0,-522 188,-927 560,-1217 372,-292 899,-436 1579,-436 207,0 415,18 627,57 212,39 432,95 660,172l0 0z"/>
    <path class="fil0" d="M114772 83689l0 614c-266,-100 -521,-175 -761,-223 -242,-48 -479,-72 -710,-72 -879,0 -1569,258 -2070,774 -500,517 -749,1229 -749,2137 0,861 250,1537 749,2028 501,492 1191,739 2070,739 260,0 509,-22 745,-67 237,-44 467,-113 689,-206l0 634c-210,73 -442,126 -697,162 -253,35 -538,53 -856,53 -1033,0 -1854,-304 -2466,-910 -611,-607 -916,-1421 -916,-2444 0,-1054 317,-1893 952,-2517 635,-623 1488,-935 2558,-935 286,0 551,18 797,57 247,38 469,97 665,176l0 0z"/>
    <path class="fil0" d="M118469 83356c905,0 1625,315 2162,945 537,631 805,1482 805,2555 0,1074 -268,1926 -805,2558 -537,632 -1257,949 -2162,949 -908,0 -1630,-318 -2168,-951 -536,-633 -804,-1485 -804,-2556 0,-1070 268,-1921 804,-2553 538,-632 1260,-947 2168,-947zm0 558c-696,0 -1251,265 -1667,797 -416,532 -624,1244 -624,2136 0,892 208,1605 624,2139 416,533 971,800 1667,800 694,0 1252,-267 1669,-800 417,-534 626,-1247 626,-2139 0,-892 -209,-1604 -626,-2136 -417,-532 -975,-797 -1669,-797z"/>
    <path class="fil0" d="M122874 83474l1505 0c727,0 1278,146 1653,436 374,292 562,721 562,1289 0,422 -134,777 -400,1064 -267,288 -645,482 -1134,584 200,43 367,131 500,259 133,128 267,342 399,640l1111 2496 -701 0 -1004 -2353c-125,-279 -276,-477 -454,-592 -177,-116 -427,-174 -748,-174l-661 0 0 3119 -629 0 0 -6768 1 0 0 0zm629 562l0 2520 776 0c512,0 910,-119 1198,-358 289,-237 431,-567 431,-990 0,-393 -132,-688 -395,-880 -263,-194 -664,-292 -1201,-292l-809 0z"/>
   </g>
   <g>
    <g>
     <path class="fil1" d="M24577 55552c-2465,0 -4389,924 -5761,2764 -936,1277 -1406,2468 -1406,3561l10451 0c1092,0 1645,-511 1645,-1546 0,-1030 -517,-2093 -1549,-3188 -1037,-1063 -2151,-1591 -3380,-1591l0 0zm-7166 10689c0,1424 561,2810 1683,4140 1414,1706 3241,2561 5484,2561 2632,0 5512,-563 8682,-1692l0 4682c-3195,913 -6081,1372 -8682,1372 -4054,0 -7201,-1272 -9415,-3800 -2100,-2371 -3142,-5447 -3142,-9229 0,-3666 994,-6677 3006,-9054 2202,-2684 5376,-4033 9510,-4033 2808,0 5201,939 7170,2817 1996,1877 3001,4132 3001,6794 0,1682 -625,3018 -1877,3982 -1250,968 -2750,1460 -4502,1460l-10918 0 0 0z"/>
    </g>
    <path class="fil1" d="M49730 77351c-2687,0 -5260,-422 -7692,-1271l0 -4875c2631,1250 5120,1884 7494,1884 1324,0 2423,-290 3296,-876 875,-571 1302,-1281 1302,-2131 0,-1156 -1047,-2250 -3135,-3279 -3599,-1746 -5517,-2722 -5772,-2909 -2093,-1414 -3134,-3168 -3134,-5293 0,-2537 988,-4441 2951,-5726 1658,-1085 3699,-1637 6138,-1637 2070,0 4366,412 6895,1221l0 4636c-2458,-1000 -4641,-1495 -6534,-1495 -2832,0 -4249,905 -4249,2719 0,965 1044,1939 3136,2906 3202,1463 5165,2450 5879,2954 2086,1493 3125,3385 3125,5670 0,2630 -1136,4613 -3430,5961 -1773,1023 -3868,1541 -6270,1541l0 0z"/>
    <path class="fil1" d="M73227 77351c-2689,0 -5245,-422 -7685,-1271l0 -4875c2623,1250 5123,1884 7503,1884 1304,0 2400,-290 3270,-876 878,-571 1324,-1281 1324,-2131 0,-1156 -1055,-2250 -3148,-3279 -3592,-1746 -5517,-2722 -5761,-2909 -2102,-1414 -3142,-3168 -3142,-5293 0,-2537 979,-4441 2949,-5726 1656,-1085 3716,-1637 6148,-1637 2058,0 4357,412 6891,1221l0 4636c-2467,-1000 -4637,-1495 -6535,-1495 -2826,0 -4251,905 -4251,2719 0,965 1039,1939 3132,2906 3209,1463 5163,2450 5880,2954 2093,1493 3134,3385 3134,5670 0,2630 -1147,4613 -3426,5961 -1779,1023 -3878,1541 -6283,1541l0 0z"/>
    <g>
     <path class="fil1" d="M101723 55502c-4823,0 -7220,2833 -7220,8486 0,2610 595,4732 1780,6338 1277,1750 3113,2615 5487,2615 4715,0 7071,-2812 7071,-8442 0,-2702 -579,-4834 -1728,-6381 -1284,-1742 -3081,-2616 -5390,-2616l0 0 0 0zm47 21802c-4102,0 -7267,-1309 -9524,-3940 -2153,-2466 -3237,-5590 -3237,-9376 0,-3775 1066,-6828 3190,-9140 2288,-2465 5452,-3707 9524,-3707 4027,0 7187,1334 9463,3988 2093,2407 3143,5530 3143,9371 0,3817 -1051,6855 -3143,9149 -2212,2436 -5357,3655 -9416,3655l0 0z"/>
    </g>
    <path class="fil1" d="M132466 55598c-1813,0 -3611,245 -5392,753l0 19873 -5203 0 0 -22811c3570,-1459 7189,-2177 10877,-2177 741,0 1644,46 2669,144l0 4347c-1877,-79 -2852,-129 -2951,-129l0 0z"/>
   </g>
   <g>
    <path class="fil1" d="M153080 44535l9412 -7043 -5912 -4471c-964,-760 -2177,-1214 -3498,-1214 -1285,0 -2468,428 -3418,1150l-5997 4534 9413 7044 0 0z"/>
    <path class="fil1" d="M153080 60755l9387 7012 -5887 4502c-964,759 -2177,1215 -3498,1215 -1285,0 -2468,-430 -3418,-1152l-5997 -4534 9413 -7043 0 0z"/>
    <polygon class="fil2" points="162716,53545 153835,60188 162716,66833 "/>
    <path class="fil2" d="M143048 38154l2 9321 19 546c0,39 -19,-467 -19,-429 0,2865 1332,5516 3423,7090l6154 4599 0 -13962 -9579 -7165 0 0z"/>
    <polygon class="fil1" points="153536,59284 162416,52643 153536,45999 "/>
   </g>
  </g>
  <rect class="fil3" x="7694" y="27021" width="159216" height="70155"/>
 </g>
</svg>
